<svg width="47" height="21" viewBox="0 0 47 21" fill="none" xmlns="http://www.w3.org/2000/svg">
<mask id="path-1-outside-1_30_49152" maskUnits="userSpaceOnUse" x="-0.569687" y="-0.991943" width="48" height="22" fill="black">
<rect fill="white" x="-0.569687" y="-0.991943" width="48" height="22"/>
<path d="M5 5.00006H8.2V16.0081H5V5.00006ZM12.2973 15.5441C12.2226 15.2454 12.1266 14.8294 12.0093 14.2961L11.5773 12.5361L11.0973 10.5201L9.80125 5.00006H12.9853L15.2573 16.0081H12.4093L12.2973 15.5441ZM14.8093 10.5041L16.0093 5.00006H19.2893L21.9133 16.0081H19.1773L19.0493 15.4801L18.7133 14.0881L18.2333 12.0561C18.0306 11.2347 17.8386 10.4294 17.6573 9.64006H17.5613L17.0173 12.0561L16.8413 12.8721C16.7879 13.0961 16.7346 13.3094 16.6813 13.5121C16.6386 13.7147 16.5959 13.9067 16.5533 14.0881L16.2333 15.4801L16.1053 16.0081H15.9293L14.8093 10.5041ZM21.2733 10.4081L22.2333 5.00006H25.4173L24.1053 10.5201L23.6253 12.5361C23.4226 13.3574 23.2839 13.9441 23.2093 14.2961L22.9053 15.5441L22.7933 16.0081H22.6013L21.2733 10.4081ZM27.0188 5.00006H30.2188V16.0081H27.0188V5.00006ZM30.8908 12.1521V8.71206L33.4188 5.00006H36.9068L33.1148 10.1841L36.9548 16.0081H33.3708L30.8908 12.1521Z"/>
</mask>
<path d="M5 5.00006H8.2V16.0081H5V5.00006ZM12.2973 15.5441C12.2226 15.2454 12.1266 14.8294 12.0093 14.2961L11.5773 12.5361L11.0973 10.5201L9.80125 5.00006H12.9853L15.2573 16.0081H12.4093L12.2973 15.5441ZM14.8093 10.5041L16.0093 5.00006H19.2893L21.9133 16.0081H19.1773L19.0493 15.4801L18.7133 14.0881L18.2333 12.0561C18.0306 11.2347 17.8386 10.4294 17.6573 9.64006H17.5613L17.0173 12.0561L16.8413 12.8721C16.7879 13.0961 16.7346 13.3094 16.6813 13.5121C16.6386 13.7147 16.5959 13.9067 16.5533 14.0881L16.2333 15.4801L16.1053 16.0081H15.9293L14.8093 10.5041ZM21.2733 10.4081L22.2333 5.00006H25.4173L24.1053 10.5201L23.6253 12.5361C23.4226 13.3574 23.2839 13.9441 23.2093 14.2961L22.9053 15.5441L22.7933 16.0081H22.6013L21.2733 10.4081ZM27.0188 5.00006H30.2188V16.0081H27.0188V5.00006ZM30.8908 12.1521V8.71206L33.4188 5.00006H36.9068L33.1148 10.1841L36.9548 16.0081H33.3708L30.8908 12.1521Z" fill="#FF8D28"/>
<path d="M5 5.00006V5.72205e-05H9.53674e-07V5.00006H5ZM8.2 5.00006H13.2V5.72205e-05H8.2V5.00006ZM8.2 16.0081V21.0081H13.2V16.0081H8.2ZM5 16.0081H9.53674e-07V21.0081H5V16.0081ZM5 5.00006V10.0001H8.2V5.00006V5.72205e-05H5V5.00006ZM8.2 5.00006H3.2V16.0081H8.2H13.2V5.00006H8.2ZM8.2 16.0081V11.0081H5V16.0081V21.0081H8.2V16.0081ZM5 16.0081H10V5.00006H5H9.53674e-07V16.0081H5ZM12.2973 15.5441L17.1577 14.3709L17.1529 14.3511L17.148 14.3314L12.2973 15.5441ZM12.0093 14.2961L16.8925 13.2217L16.8795 13.1628L16.8651 13.1042L12.0093 14.2961ZM11.5773 12.5361L6.71322 13.6942L6.71725 13.7111L6.72139 13.7279L11.5773 12.5361ZM11.0973 10.5201L6.22961 11.6629L6.2314 11.6705L6.23322 11.6782L11.0973 10.5201ZM9.80125 5.00006V5.72205e-05H3.49138L4.93361 6.14289L9.80125 5.00006ZM12.9853 5.00006L17.882 3.98938L17.0587 5.72205e-05H12.9853V5.00006ZM15.2573 16.0081V21.0081H21.3946L20.154 14.9974L15.2573 16.0081ZM12.4093 16.0081L7.54884 17.1813L8.47255 21.0081H12.4093V16.0081ZM14.8093 10.5041L9.92401 9.43896L9.69955 10.4685L9.90966 11.5011L14.8093 10.5041ZM16.0093 5.00006V5.72205e-05H11.9819L11.124 3.93496L16.0093 5.00006ZM19.2893 5.00006L24.153 3.84068L23.2375 5.72205e-05H19.2893V5.00006ZM21.9132 16.0081V21.0081H28.2452L26.777 14.8487L21.9132 16.0081ZM19.1772 16.0081L14.318 17.1861L15.2445 21.0081H19.1772V16.0081ZM19.0493 15.4801L14.1888 16.6533L14.19 16.6581L19.0493 15.4801ZM18.7133 14.0881L13.8472 15.2375L13.85 15.2494L13.8528 15.2613L18.7133 14.0881ZM18.2332 12.0561L23.0993 10.9066L23.0936 10.8824L23.0877 10.8582L18.2332 12.0561ZM17.6573 9.64006L22.5303 8.52057L21.6388 4.64006H17.6573V9.64006ZM17.5613 9.64006V4.64006H13.5619L12.6834 8.54173L17.5613 9.64006ZM17.0173 12.0561L12.1394 10.9577L12.1344 10.9798L12.1296 11.0019L17.0173 12.0561ZM16.8413 12.8721L21.7053 14.0302L21.7176 13.9783L21.7289 13.9262L16.8413 12.8721ZM16.6813 13.5121L11.8459 12.2396L11.8142 12.3601L11.7885 12.482L16.6813 13.5121ZM16.5533 14.0881L11.6862 12.9429L11.6832 12.9553L11.6804 12.9679L16.5533 14.0881ZM16.2333 15.4801L21.0925 16.6581L21.0995 16.6292L21.1061 16.6003L16.2333 15.4801ZM16.1053 16.0081V21.0081H20.038L20.9645 17.1861L16.1053 16.0081ZM15.9293 16.0081L11.0297 17.0051L11.8442 21.0081H15.9293V16.0081ZM21.2733 10.4081L16.3502 9.53415L16.1692 10.554L16.4082 11.5618L21.2733 10.4081ZM22.2333 5.00006V5.72205e-05H18.0427L17.3102 4.12614L22.2333 5.00006ZM25.4173 5.00006L30.2817 6.15625L31.7449 5.72205e-05H25.4173V5.00006ZM24.1053 10.5201L28.9693 11.6782L28.9697 11.6763L24.1053 10.5201ZM23.6253 12.5361L28.4796 13.7339L28.4845 13.714L28.4893 13.6942L23.6253 12.5361ZM23.2093 14.2961L28.0672 15.4794L28.0849 15.4067L28.1004 15.3336L23.2093 14.2961ZM22.9053 15.5441L18.0473 14.3607L18.0448 14.3708L22.9053 15.5441ZM22.7933 16.0081V21.0081H26.7299L27.6537 17.1813L22.7933 16.0081ZM22.6013 16.0081L17.7362 17.1618L18.6483 21.0081H22.6013V16.0081ZM12.2973 15.5441L17.148 14.3314C17.0903 14.1008 17.0061 13.7382 16.8925 13.2217L12.0093 14.2961L7.12603 15.3704C7.24707 15.9205 7.35486 16.39 7.44654 16.7567L12.2973 15.5441ZM12.0093 14.2961L16.8651 13.1042L16.4331 11.3442L11.5773 12.5361L6.72139 13.7279L7.15339 15.4879L12.0093 14.2961ZM11.5773 12.5361L16.4413 11.378L15.9613 9.36195L11.0973 10.5201L6.23322 11.6782L6.71322 13.6942L11.5773 12.5361ZM11.0973 10.5201L15.9649 9.37722L14.6689 3.85722L9.80125 5.00006L4.93361 6.14289L6.22961 11.6629L11.0973 10.5201ZM9.80125 5.00006V10.0001H12.9853V5.00006V5.72205e-05H9.80125V5.00006ZM12.9853 5.00006L8.08846 6.01073L10.3605 17.0187L15.2573 16.0081L20.154 14.9974L17.882 3.98938L12.9853 5.00006ZM15.2573 16.0081V11.0081H12.4093V16.0081V21.0081H15.2573V16.0081ZM12.4093 16.0081L17.2697 14.8349L17.1577 14.3709L12.2973 15.5441L7.43684 16.7173L7.54884 17.1813L12.4093 16.0081ZM14.8093 10.5041L19.6945 11.5692L20.8945 6.06515L16.0093 5.00006L11.124 3.93496L9.92401 9.43896L14.8093 10.5041ZM16.0093 5.00006V10.0001H19.2893V5.00006V5.72205e-05H16.0093V5.00006ZM19.2893 5.00006L14.4255 6.15943L17.0495 17.1674L21.9132 16.0081L26.777 14.8487L24.153 3.84068L19.2893 5.00006ZM21.9132 16.0081V11.0081H19.1772V16.0081V21.0081H21.9132V16.0081ZM19.1772 16.0081L24.0365 14.8301L23.9085 14.3021L19.0493 15.4801L14.19 16.6581L14.318 17.1861L19.1772 16.0081ZM19.0493 15.4801L23.9097 14.3069L23.5737 12.9149L18.7133 14.0881L13.8528 15.2613L14.1888 16.6533L19.0493 15.4801ZM18.7133 14.0881L23.5793 12.9386L23.0993 10.9066L18.2332 12.0561L13.3672 13.2055L13.8472 15.2375L18.7133 14.0881ZM18.2332 12.0561L23.0877 10.8582C22.8911 10.0618 22.7054 9.28261 22.5303 8.52057L17.6573 9.64006L12.7842 10.7595C12.9718 11.5762 13.17 12.4076 13.3789 13.2539L18.2332 12.0561ZM17.6573 9.64006V4.64006H17.5613V9.64006V14.6401H17.6573V9.64006ZM17.5613 9.64006L12.6834 8.54173L12.1394 10.9577L17.0173 12.0561L21.8951 13.1544L22.4391 10.7384L17.5613 9.64006ZM17.0173 12.0561L12.1296 11.0019L11.9536 11.8179L16.8413 12.8721L21.7289 13.9262L21.9049 13.1102L17.0173 12.0561ZM16.8413 12.8721L11.9772 11.714C11.9321 11.9034 11.8883 12.0784 11.8459 12.2396L16.6813 13.5121L21.5166 14.7845C21.5809 14.5404 21.6437 14.2887 21.7053 14.0302L16.8413 12.8721ZM16.6813 13.5121L11.7885 12.482C11.7531 12.6504 11.7189 12.8037 11.6862 12.9429L16.5533 14.0881L21.4203 15.2333C21.4729 15.0097 21.5241 14.7791 21.574 14.5421L16.6813 13.5121ZM16.5533 14.0881L11.6804 12.9679L11.3604 14.3599L16.2333 15.4801L21.1061 16.6003L21.4261 15.2083L16.5533 14.0881ZM16.2333 15.4801L11.374 14.3021L11.246 14.8301L16.1053 16.0081L20.9645 17.1861L21.0925 16.6581L16.2333 15.4801ZM16.1053 16.0081V11.0081H15.9293V16.0081V21.0081H16.1053V16.0081ZM15.9293 16.0081L20.8288 15.011L19.7088 9.50705L14.8093 10.5041L9.90966 11.5011L11.0297 17.0051L15.9293 16.0081ZM21.2733 10.4081L26.1963 11.282L27.1563 5.87397L22.2333 5.00006L17.3102 4.12614L16.3502 9.53415L21.2733 10.4081ZM22.2333 5.00006V10.0001H25.4173V5.00006V5.72205e-05H22.2333V5.00006ZM25.4173 5.00006L20.5528 3.84386L19.2408 9.36386L24.1053 10.5201L28.9697 11.6763L30.2817 6.15625L25.4173 5.00006ZM24.1053 10.5201L19.2412 9.36195L18.7612 11.378L23.6253 12.5361L28.4893 13.6942L28.9693 11.6782L24.1053 10.5201ZM23.6253 12.5361L18.7709 11.3382C18.5678 12.1612 18.4114 12.8184 18.3181 13.2585L23.2093 14.2961L28.1004 15.3336C28.1564 15.0697 28.2774 14.5536 28.4796 13.7339L23.6253 12.5361ZM23.2093 14.2961L18.3513 13.1127L18.0473 14.3607L22.9053 15.5441L27.7632 16.7274L28.0672 15.4794L23.2093 14.2961ZM22.9053 15.5441L18.0448 14.3708L17.9328 14.8349L22.7933 16.0081L27.6537 17.1813L27.7657 16.7173L22.9053 15.5441ZM22.7933 16.0081V11.0081H22.6013V16.0081V21.0081H22.7933V16.0081ZM22.6013 16.0081L27.4663 14.8543L26.1383 9.25434L21.2733 10.4081L16.4082 11.5618L17.7362 17.1618L22.6013 16.0081ZM27.0188 5.00006V5.72205e-05H22.0187V5.00006H27.0188ZM30.2188 5.00006H35.2188V5.72205e-05H30.2188V5.00006ZM30.2188 16.0081V21.0081H35.2188V16.0081H30.2188ZM27.0188 16.0081H22.0187V21.0081H27.0188V16.0081ZM30.8908 12.1521H25.8908V13.6211L26.6854 14.8567L30.8908 12.1521ZM30.8908 8.71206L26.7581 5.89758L25.8908 7.17117V8.71206H30.8908ZM33.4188 5.00006V5.72205e-05H30.7745L29.2861 2.18558L33.4188 5.00006ZM36.9067 5.00006L40.9423 7.95201L46.759 5.72205e-05H36.9067V5.00006ZM33.1147 10.1841L29.0792 7.2321L27.0281 10.036L28.9404 12.9363L33.1147 10.1841ZM36.9548 16.0081V21.0081H46.2405L41.1291 13.2558L36.9548 16.0081ZM33.3708 16.0081L29.1654 18.7127L30.6417 21.0081H33.3708V16.0081ZM27.0188 5.00006V10.0001H30.2188V5.00006V5.72205e-05H27.0188V5.00006ZM30.2188 5.00006H25.2188V16.0081H30.2188H35.2188V5.00006H30.2188ZM30.2188 16.0081V11.0081H27.0188V16.0081V21.0081H30.2188V16.0081ZM27.0188 16.0081H32.0187V5.00006H27.0188H22.0187V16.0081H27.0188ZM30.8908 12.1521H35.8908V8.71206H30.8908H25.8908V12.1521H30.8908ZM30.8908 8.71206L35.0234 11.5265L37.5514 7.81453L33.4188 5.00006L29.2861 2.18558L26.7581 5.89758L30.8908 8.71206ZM33.4188 5.00006V10.0001H36.9067V5.00006V5.72205e-05H33.4188V5.00006ZM36.9067 5.00006L32.8712 2.0481L29.0792 7.2321L33.1147 10.1841L37.1503 13.136L40.9423 7.95201L36.9067 5.00006ZM33.1147 10.1841L28.9404 12.9363L32.7804 18.7604L36.9548 16.0081L41.1291 13.2558L37.2891 7.43176L33.1147 10.1841ZM36.9548 16.0081V11.0081H33.3708V16.0081V21.0081H36.9548V16.0081ZM33.3708 16.0081L37.5761 13.3034L35.0961 9.44739L30.8908 12.1521L26.6854 14.8567L29.1654 18.7127L33.3708 16.0081Z" fill="white" mask="url(#path-1-outside-1_30_49152)"/>
</svg>
